<?xml version="1.0" encoding="UTF-8"?>
<svg version="1.1" xmlns="http://www.w3.org/2000/svg" width="138" height="141">
<path d="M0 0 C5.44260002 2.53362415 8.81737341 6.33909018 11.25 11.8125 C12.86506049 18.6765071 12.53576541 23.84092476 9 30 C5.00890809 34.48611106 1.02257692 37.0654622 -5 38 C-9.73494956 37.83672588 -14.38248461 37.04266477 -19 36 C-19.66 36.99 -20.32 37.98 -21 39 C-21.66 39 -22.32 39 -23 39 C-23 39.66 -23 40.32 -23 41 C-25.375 43.625 -25.375 43.625 -28 46 C-28.66 46 -29.32 46 -30 46 C-30 46.66 -30 47.32 -30 48 C-31.375 49.625 -31.375 49.625 -33 51 C-33.66 51 -34.32 51 -35 51 C-35.66 52.32 -36.32 53.64 -37 55 C-37.66 55 -38.32 55 -39 55 C-39.79356801 56.74671588 -39.79356801 56.74671588 -40 59 C-39.525625 59.70125 -39.05125 60.4025 -38.5625 61.125 C-36.2173953 65.43999266 -36.1395327 69.19803735 -37 74 C-39.50853288 79.92013759 -42.21034791 84.01717124 -48 87 C-54.15606351 88.78201838 -60.15607078 88.52591188 -66.0703125 86.12109375 C-70.43068318 83.58784196 -73.42160639 79.73518084 -75 75 C-75.5595043 68.24290965 -75.20352111 63.00660208 -72 57 C-71.34 57 -70.68 57 -70 57 C-69.74992187 56.37738281 -69.49984375 55.75476562 -69.2421875 55.11328125 C-67.35603269 51.90444555 -65.15625876 51.50673893 -61.71484375 50.44140625 C-58.53726469 49.9247639 -55.87499887 50.21534592 -52.6875 50.625 C-49.68909748 51.04708405 -49.68909748 51.04708405 -47 51 C-44.46808501 48.81501244 -44.46808501 48.81501244 -43 46 C-41.33607955 45.32650839 -39.66967972 44.6590841 -38 44 C-37.30524065 42.68108693 -36.64240667 41.34518991 -36 40 C-35.04119966 38.71812563 -34.04006043 37.4668707 -33 36.25 C-32.484375 35.63640625 -31.96875 35.0228125 -31.4375 34.390625 C-30 33 -30 33 -28 33 C-28 32.34 -28 31.68 -28 31 C-26.70766393 29.62689293 -25.37562854 28.28965176 -24 27 C-24.66 26.01 -25.32 25.02 -26 24 C-27.03998644 17.22366731 -26.23369638 12.12165534 -22.38671875 6.4609375 C-21 5 -21 5 -18 4 C-18 3.34 -18 2.68 -18 2 C-12.61883136 -1.34649791 -6.08636812 -0.57325095 0 0 Z " fill="#EF9256" transform="translate(76,2)"/>
<path d="M0 0 C1.175625 1.0209375 1.175625 1.0209375 2.375 2.0625 C2.375 2.7225 2.375 3.3825 2.375 4.0625 C3.035 4.0625 3.695 4.0625 4.375 4.0625 C7.52184717 11.40514341 8.69760425 16.92802756 5.875 24.5625 C5.38 25.7175 4.885 26.8725 4.375 28.0625 C3.715 28.0625 3.055 28.0625 2.375 28.0625 C2.13136719 28.68640625 1.88773437 29.3103125 1.63671875 29.953125 C-0.30524325 33.19974877 -2.75800834 33.50205765 -6.25390625 34.53125 C-10.82009989 35.5543181 -14.71497777 35.2664705 -19.25 34.25 C-22.74914461 33.67680696 -22.74914461 33.67680696 -25.25 36.1875 C-26.425625 37.610625 -26.425625 37.610625 -27.625 39.0625 C-30.06658631 41.56512597 -32.43008101 43.91036811 -35.1875 46.0625 C-37.75227462 48.16693046 -39.58508637 50.45985157 -41.625 53.0625 C-42.615 53.5575 -42.615 53.5575 -43.625 54.0625 C-43.625 56.7025 -43.625 59.3425 -43.625 62.0625 C-42.965 62.0625 -42.305 62.0625 -41.625 62.0625 C-41.05417476 69.25489808 -42.05700618 74.29782048 -46.625 80.0625 C-48.11 80.5575 -48.11 80.5575 -49.625 81.0625 C-49.625 81.7225 -49.625 82.3825 -49.625 83.0625 C-53.24951689 85.34025126 -56.34076335 85.33052235 -60.5625 85.3125 C-61.76777344 85.31765625 -62.97304688 85.3228125 -64.21484375 85.328125 C-68.40476003 85.00176268 -71.2379205 84.30841654 -74.390625 81.4765625 C-74.88046875 80.88617188 -75.3703125 80.29578125 -75.875 79.6875 C-76.37515625 79.10226563 -76.8753125 78.51703125 -77.390625 77.9140625 C-80.66317735 73.00523397 -80.04303942 66.72211054 -79.625 61.0625 C-78.21521917 55.68771057 -75.77428884 52.31571382 -71.28515625 49.15234375 C-65.71544721 46.87048058 -59.51762266 47.68503663 -53.625 48.0625 C-50.4871964 48.38757841 -50.4871964 48.38757841 -48.26489258 46.04296875 C-47.35892334 45.12128906 -46.4529541 44.19960937 -45.51953125 43.25 C-45.0354631 42.76168701 -44.55139496 42.27337402 -44.05265808 41.77026367 C-42.5070986 40.20790174 -40.97228893 38.63543673 -39.4375 37.0625 C-38.39196718 36.00192238 -37.34575127 34.94201771 -36.29882812 33.8828125 C-33.73291098 31.28380566 -31.17653533 28.6756361 -28.625 26.0625 C-28.94662109 25.45293457 -29.26824219 24.84336914 -29.59960938 24.21533203 C-31.6036365 20.00782936 -31.31209743 15.59136827 -30.625 11.0625 C-28.17442165 5.11226629 -25.41216268 1.0387551 -19.625 -1.9375 C-13.33889663 -3.69176141 -5.62882325 -3.57470292 0 0 Z " fill="#F39355" transform="translate(80.625,54.9375)"/>
<path d="M0 0 C3.88333326 3.51349199 7.27292157 8.38736307 7.8984375 13.6953125 C8.11402555 19.64885935 7.60847163 23.62223083 4.3046875 28.62109375 C0.87922451 32.19791441 -2.34623399 34.56023821 -7.35546875 34.8359375 C-8.75808295 34.82806502 -10.16072316 34.79909449 -11.5625 34.75 C-12.27341797 34.74871094 -12.98433594 34.74742188 -13.71679688 34.74609375 C-17.4476998 34.6829176 -19.20422028 34.48885315 -22.375 32.375 C-22.375 33.035 -22.375 33.695 -22.375 34.375 C-23.035 34.375 -23.695 34.375 -24.375 34.375 C-24.705 35.365 -25.035 36.355 -25.375 37.375 C-26.035 37.375 -26.695 37.375 -27.375 37.375 C-27.58125 37.91125 -27.7875 38.4475 -28 39 C-29.90750426 42.29478009 -32.42319384 44.96863628 -35.375 47.375 C-36.035 47.375 -36.695 47.375 -37.375 47.375 C-37.705 48.365 -38.035 49.355 -38.375 50.375 C-39.035 50.375 -39.695 50.375 -40.375 50.375 C-40.375 51.035 -40.375 51.695 -40.375 52.375 C-41.035 52.375 -41.695 52.375 -42.375 52.375 C-43.98678894 56.40447234 -42.53517428 59.34851278 -41.375 63.375 C-40.87320629 68.89473081 -41.58010932 73.58098612 -44.375 78.375 C-47.87773479 82.12098027 -51.24457629 85.26020273 -56.4921875 85.54296875 C-57.73226562 85.54941406 -58.97234375 85.55585938 -60.25 85.5625 C-62.10238281 85.58376953 -62.10238281 85.58376953 -63.9921875 85.60546875 C-67.11586712 85.39265455 -68.77561596 85.02737226 -71.375 83.375 C-71.375 82.715 -71.375 82.055 -71.375 81.375 C-72.24125 81.0965625 -72.24125 81.0965625 -73.125 80.8125 C-76.47037022 78.67518014 -78.08415762 76.03784716 -79.375 72.375 C-80.49326599 65.5730702 -79.47408531 60.33126479 -76.15234375 54.34765625 C-73.14357581 51.00825447 -69.77043777 48.66051006 -65.27954102 48.12524414 C-63.06918058 48.12499503 -60.89233174 48.22013912 -58.6875 48.375 C-52.93699732 48.94126481 -52.93699732 48.94126481 -47.98046875 46.375 C-47.45066406 45.715 -46.92085937 45.055 -46.375 44.375 C-45.715 44.375 -45.055 44.375 -44.375 44.375 C-44.148125 43.59125 -43.92125 42.8075 -43.6875 42 C-42.375 39.375 -42.375 39.375 -39.75 38.0625 C-38.96625 37.835625 -38.1825 37.60875 -37.375 37.375 C-37.375 36.385 -37.375 35.395 -37.375 34.375 C-36.715 34.375 -36.055 34.375 -35.375 34.375 C-35.375 33.715 -35.375 33.055 -35.375 32.375 C-34.385 32.375 -33.395 32.375 -32.375 32.375 C-32.375 31.715 -32.375 31.055 -32.375 30.375 C-31.715 30.375 -31.055 30.375 -30.375 30.375 C-30.375 29.385 -30.375 28.395 -30.375 27.375 C-29.715 27.375 -29.055 27.375 -28.375 27.375 C-28.87 25.89 -28.87 25.89 -29.375 24.375 C-31.3788975 17.22440173 -30.67383661 11.97267323 -27.375 5.375 C-26.715 5.375 -26.055 5.375 -25.375 5.375 C-25.375 4.385 -25.375 3.395 -25.375 2.375 C-24.715 2.375 -24.055 2.375 -23.375 2.375 C-23.375 1.715 -23.375 1.055 -23.375 0.375 C-15.16578734 -2.71655455 -8.12470884 -3.91189685 0 0 Z " fill="#F19255" transform="translate(129.375,54.625)"/>
<path d="M0 0 C4.52173352 3.79067481 7.01230782 7.82361426 8.09765625 13.6328125 C8.52116192 19.86594723 6.4264008 24.52840888 2.6875 29.4375 C-1.65123207 34.17066226 -6.36585168 35.27697117 -12.6640625 35.5703125 C-17.99335263 35.30306196 -21.14685188 33.49953496 -25.125 29.875 C-25.846875 29.070625 -26.56875 28.26625 -27.3125 27.4375 C-27.9725 26.7775 -28.6325 26.1175 -29.3125 25.4375 C-30.38949881 22.30254167 -30.47713287 19.29744036 -30.5 16 C-30.51417969 15.07316406 -30.52835938 14.14632813 -30.54296875 13.19140625 C-30.11752231 8.10768183 -28.43585441 5.08169 -24.625 1.75 C-17.14226826 -4.42729113 -8.15574475 -5.56349131 0 0 Z " fill="#F39355" transform="translate(31.3125,4.5625)"/>
<path d="M0 0 C5.49735982 3.04344451 9.12336905 6.97454279 11 13 C11.98372156 19.83427609 11.21645052 25.28143619 7.4765625 31.12109375 C4.16557978 35.33427546 0.75843339 37.08105432 -4.4375 37.875 C-11.28544411 38.3460834 -16.70839104 36.35087848 -22 32 C-25.90214088 26.55688629 -27.44530251 21.6795376 -27 15 C-25.12535398 9.37606195 -22.35859789 4.21606117 -17.2890625 0.87109375 C-11.78598159 -1.22308209 -5.72548897 -0.87948233 0 0 Z " fill="#F29356" transform="translate(126,2)"/>
<path d="M0 0 C4.54852704 1.60274362 6.9993755 4.56702567 9.4375 8.625 C12.09268991 14.667846 11.92893933 21.10389504 9.9375 27.3125 C7.05002023 31.31771387 3.44758019 34.77620991 -1 37 C-3.28919778 37.12335276 -5.58251218 37.17558478 -7.875 37.1875 C-9.10992187 37.20167969 -10.34484375 37.21585938 -11.6171875 37.23046875 C-14.74086712 37.01765455 -16.40061596 36.65237226 -19 35 C-19 34.34 -19 33.68 -19 33 C-19.99 32.67 -20.98 32.34 -22 32 C-22 31.34 -22 30.68 -22 30 C-22.99 29.67 -23.98 29.34 -25 29 C-27.33629516 22.85185483 -27.90453507 17.62315171 -25.75 11.375 C-19.84545072 -0.01234504 -12.02835191 -1.35237686 0 0 Z " fill="#F49355" transform="translate(126,103)"/>
<path d="M0 0 C0 -0.33 0 -0.66 0 -1 C3.1875 -1.375 3.1875 -1.375 7 -1 C11.94184553 3.72220795 14.27014439 8.50998656 14.4375 15.3125 C14.32399211 20.92735711 12.90542387 24.92201089 9 29 C4.18036223 32.97284929 0.79801432 33.58463092 -5.1875 33.375 C-5.89841797 33.37371094 -6.60933594 33.37242188 -7.34179688 33.37109375 C-11.0726998 33.3079176 -12.82922028 33.11385315 -16 31 C-16 31.66 -16 32.32 -16 33 C-16.66 33 -17.32 33 -18 33 C-18.33 33.99 -18.66 34.98 -19 36 C-22.875 35.125 -22.875 35.125 -24 34 C-24.66 34 -25.32 34 -26 34 C-25 32 -24 30 -23 28 C-22.34 28 -21.68 28 -21 28 C-20.41387545 24.7030494 -19.93383686 21.78914583 -20.21484375 18.4375 C-20.80745841 11.11818911 -18.9660994 7.5220441 -14.3359375 1.8984375 C-9.87091864 -1.73032365 -5.37479253 -1.15174126 0 0 Z " fill="#F49255" transform="translate(123,56)"/>
<path d="M0 0 C1 3 1 3 0 6 C-1.32 6 -2.64 6 -4 6 C-3.97679687 7.27875 -3.95359375 8.5575 -3.9296875 9.875 C-3.91091467 11.58332745 -3.89271611 13.29166127 -3.875 15 C-3.85824219 15.83917969 -3.84148438 16.67835937 -3.82421875 17.54296875 C-3.78156441 23.04537873 -4.14019137 27.79139485 -6 33 C-9.52159147 36.31165044 -13.92725165 37.80558637 -18.70703125 38.25390625 C-23.28875066 38.02722448 -25.41533113 37.51003029 -28.9375 34.4375 C-29.618125 33.633125 -30.29875 32.82875 -31 32 C-31.99 32 -32.98 32 -34 32 C-37.7512383 17.15134838 -37.7512383 17.15134838 -37 12 C-34.45547625 7.79174919 -31.25392227 5.39594451 -27 3 C-23.203125 2.5390625 -23.203125 2.5390625 -19.25 2.625 C-17.93515625 2.63789062 -16.6203125 2.65078125 -15.265625 2.6640625 C-12 3 -12 3 -10 5 C-7.93125966 5.6425235 -7.93125966 5.6425235 -6 6 C-5.67 5.01 -5.34 4.02 -5 3 C-2.4375 1.3125 -2.4375 1.3125 0 0 Z " fill="#F39355" transform="translate(39,100)"/>
<path d="M0 0 C1.13115234 0.22139648 1.13115234 0.22139648 2.28515625 0.44726562 C4.14961157 0.81307648 6.01246714 1.18702356 7.875 1.5625 C8.07996094 2.20058594 8.28492187 2.83867188 8.49609375 3.49609375 C8.76550781 4.32238281 9.03492187 5.14867187 9.3125 6 C9.57933594 6.82371094 9.84617187 7.64742187 10.12109375 8.49609375 C10.69655494 10.52469588 10.69655494 10.52469588 11.875 11.5625 C12.01615161 14.23308851 11.91747107 16.88682238 11.875 19.5625 C12.865 19.8925 13.855 20.2225 14.875 20.5625 C13.99454345 22.17515753 13.09489504 23.77734475 12.1875 25.375 C11.68863281 26.26832031 11.18976562 27.16164063 10.67578125 28.08203125 C8.20081482 31.49114986 5.5166356 33.08728969 1.5 34.25 C-4.98908058 35.02250959 -10.33067571 34.68151691 -16.125 31.5625 C-18.125 29.375 -18.125 29.375 -19.125 27.5625 C-18.465 27.5625 -17.805 27.5625 -17.125 27.5625 C-17.269375 26.99402344 -17.41375 26.42554687 -17.5625 25.83984375 C-19.44849666 17.99462152 -20.20353096 11.90385572 -16.125 4.5625 C-10.67191885 -1.0796213 -7.43450455 -1.50872933 0 0 Z " fill="#F49354" transform="translate(24.125,55.4375)"/>
<path d="M0 0 C3.63 0 7.26 0 11 0 C11 0.66 11 1.32 11 2 C10.06027344 2.03867188 10.06027344 2.03867188 9.1015625 2.078125 C8.28429687 2.13484375 7.46703125 2.1915625 6.625 2.25 C5.81289063 2.29640625 5.00078125 2.3428125 4.1640625 2.390625 C3.44992188 2.59171875 2.73578125 2.7928125 2 3 C0.87392892 4.96044675 0.87392892 4.96044675 0 7 C-0.99 7.33 -1.98 7.66 -3 8 C-3.33 12.95 -3.66 17.9 -4 23 C-3.34 23 -2.68 23 -2 23 C-2 24.98 -2 26.96 -2 29 C-0.02 29 1.96 29 4 29 C4 29.66 4 30.32 4 31 C10.76660235 31.381416 16.83645738 31.06286474 23 28 C24.00721993 27.00727244 25.00851018 26.00843836 26 25 C26.66 25 27.32 25 28 25 C26.4762064 29.11424273 23.59269874 31.64901742 20 34 C12.89842065 36.94782539 6.28694603 35.64543943 -1 34 C-1.66 34.99 -2.32 35.98 -3 37 C-3.66 37 -4.32 37 -5 37 C-5 37.66 -5 38.32 -5 39 C-7.375 41.625 -7.375 41.625 -10 44 C-10.66 44 -11.32 44 -12 44 C-12 44.66 -12 45.32 -12 46 C-13.375 47.625 -13.375 47.625 -15 49 C-15.66 49 -16.32 49 -17 49 C-17.66 50.32 -18.32 51.64 -19 53 C-19.66 53 -20.32 53 -21 53 C-21.79356801 54.74671588 -21.79356801 54.74671588 -22 57 C-21.525625 57.721875 -21.05125 58.44375 -20.5625 59.1875 C-18.37513285 63.12476086 -18.74069932 66.5918884 -19 71 C-19.99 71 -20.98 71 -22 71 C-22.1953125 69.01432292 -22.390625 67.02864583 -22.5859375 65.04296875 C-22.92665391 62.70011858 -22.92665391 62.70011858 -25 60 C-25.39013716 58.0103005 -25.73202649 56.00980131 -26 54 C-28.58075024 53.44183774 -31.16308901 52.9031237 -33.75 52.375 C-34.84441406 52.13523437 -34.84441406 52.13523437 -35.9609375 51.890625 C-40.20190384 51.03258465 -40.20190384 51.03258465 -44.3828125 51.8046875 C-48.71211604 55.00460751 -50.75203446 57.69614646 -52 63 C-52.30540073 68.39541281 -51.678682 73.65537924 -51 79 C-51.99 79 -52.98 79 -54 79 C-57.5650245 73.50392057 -57.71482073 68.34174287 -57 62 C-56.22768365 59.42561217 -55.27246272 57.38586759 -54 55 C-53.34 55 -52.68 55 -52 55 C-51.74992187 54.37738281 -51.49984375 53.75476562 -51.2421875 53.11328125 C-49.35603269 49.90444555 -47.15625876 49.50673893 -43.71484375 48.44140625 C-40.53726469 47.9247639 -37.87499887 48.21534592 -34.6875 48.625 C-31.68909748 49.04708405 -31.68909748 49.04708405 -29 49 C-26.46808501 46.81501244 -26.46808501 46.81501244 -25 44 C-23.33607955 43.32650839 -21.66967972 42.6590841 -20 42 C-19.30524065 40.68108693 -18.64240667 39.34518991 -18 38 C-17.04119966 36.71812563 -16.04006043 35.4668707 -15 34.25 C-14.484375 33.63640625 -13.96875 33.0228125 -13.4375 32.390625 C-12 31 -12 31 -10 31 C-10 30.34 -10 29.68 -10 29 C-8.70766393 27.62689293 -7.37562854 26.28965176 -6 25 C-6.66 24.01 -7.32 23.02 -8 22 C-9.03998644 15.22366731 -8.23369638 10.12165534 -4.38671875 4.4609375 C-3 3 -3 3 0 2 C0 1.34 0 0.68 0 0 Z " fill="#D28A62" transform="translate(58,4)"/>
<path d="M0 0 C-2 3 -2 3 -4.1640625 3.73046875 C-5.38222656 3.95669922 -5.38222656 3.95669922 -6.625 4.1875 C-7.44226562 4.34605469 -8.25953125 4.50460938 -9.1015625 4.66796875 C-9.72804687 4.77753906 -10.35453125 4.88710938 -11 5 C-11.144375 6.134375 -11.28875 7.26875 -11.4375 8.4375 C-12 12 -12 12 -13 13 C-13.25003964 16.45821402 -13.25003964 16.45821402 -13 20 C-12.34 20.66 -11.68 21.32 -11 22 C-10.43479997 24.65537372 -10.26211802 27.29144713 -10 30 C-8.35 30.33 -6.7 30.66 -5 31 C-5 31.66 -5 32.32 -5 33 C3.99310366 33.59058511 3.99310366 33.59058511 12 30 C13.31068333 27.55711372 13.31068333 27.55711372 14 25 C14.99 23.515 14.99 23.515 16 22 C16.66 22 17.32 22 18 22 C18 21.01 18 20.02 18 19 C18.66 19 19.32 19 20 19 C20.495 17.515 20.495 17.515 21 16 C20.88512252 17.58409994 20.75765492 19.16728963 20.625 20.75 C20.55539063 21.63171875 20.48578125 22.5134375 20.4140625 23.421875 C20.00149945 25.99066382 19.28839043 27.75841015 18 30 C17.34 30 16.68 30 16 30 C15.75636719 30.62390625 15.51273437 31.2478125 15.26171875 31.890625 C13.31975675 35.13724877 10.86699166 35.43955765 7.37109375 36.46875 C2.80490011 37.4918181 -1.08997777 37.2039705 -5.625 36.1875 C-9.12414461 35.61430696 -9.12414461 35.61430696 -11.625 38.125 C-12.800625 39.548125 -12.800625 39.548125 -14 41 C-16.44158631 43.50262597 -18.80508101 45.84786811 -21.5625 48 C-24.12727462 50.10443046 -25.96008637 52.39735157 -28 55 C-28.99 55.495 -28.99 55.495 -30 56 C-30 58.64 -30 61.28 -30 64 C-29.34 64 -28.68 64 -28 64 C-27.42917476 71.19239808 -28.43200618 76.23532048 -33 82 C-34.485 82.495 -34.485 82.495 -36 83 C-36 83.66 -36 84.32 -36 85 C-39.62451689 87.27775126 -42.71576335 87.26802235 -46.9375 87.25 C-48.14277344 87.25515625 -49.34804688 87.2603125 -50.58984375 87.265625 C-54.77976003 86.93926268 -57.6129205 86.24591654 -60.765625 83.4140625 C-61.25546875 82.82367188 -61.7453125 82.23328125 -62.25 81.625 C-62.75015625 81.03976563 -63.2503125 80.45453125 -63.765625 79.8515625 C-66.23110936 76.15333596 -66.11430355 72.60149784 -66.0625 68.25 C-66.05347656 67.26515625 -66.04445313 66.2803125 -66.03515625 65.265625 C-66.02355469 64.51796875 -66.01195313 63.7703125 -66 63 C-63.79334596 66.30998105 -63.21737905 68.82021436 -62.375 72.6875 C-61.98441406 74.45673828 -61.98441406 74.45673828 -61.5859375 76.26171875 C-61.39257812 77.16535156 -61.19921875 78.06898438 -61 79 C-60.01 79 -59.02 79 -58 79 C-57.78601562 79.639375 -57.57203125 80.27875 -57.3515625 80.9375 C-56.15229491 83.25264368 -56.15229491 83.25264368 -53.4609375 83.75 C-46.23230531 84.33561071 -42.1935202 83.78492901 -36 80 C-35.34 80 -34.68 80 -34 80 C-32.97301714 73.83810282 -32.92899292 67.77975019 -33.03710938 61.54882812 C-33.07627782 58.40631373 -33.00255462 56.00766386 -32 53 C-30.68 53 -29.36 53 -28 53 C-28 51.35 -28 49.7 -28 48 C-31.62793998 49.86566488 -31.62793998 49.86566488 -34 53 C-35.32 53 -36.64 53 -38 53 C-36.43717018 49.23396131 -34.0936525 46.86360849 -31.2109375 44.015625 C-30.74765045 43.55516785 -30.2843634 43.09471069 -29.80703735 42.62030029 C-28.33434102 41.15874922 -26.85482597 39.70432832 -25.375 38.25 C-24.37193678 37.25697389 -23.36932743 36.26348911 -22.3671875 35.26953125 C-19.91669165 32.84102059 -17.4600333 30.41885325 -15 28 C-15.32162109 27.39043457 -15.64324219 26.78086914 -15.97460938 26.15283203 C-17.9786365 21.94532936 -17.68709743 17.52886827 -17 13 C-13.64400881 4.85133911 -9.36844392 -0.65361237 0 0 Z " fill="#D89161" transform="translate(67,53)"/>
<path d="M0 0 C4.44567315 2.86692647 7.17408953 7.11234226 8.60546875 12.15625 C9.3816386 18.36560878 9.37097679 23.93312594 5.60546875 29.15625 C0.31927463 34.34455163 -2.73333209 36.30458057 -10.26953125 36.34375 C-11.50445312 36.35792969 -12.739375 36.37210938 -14.01171875 36.38671875 C-17.13539837 36.17390455 -18.79514721 35.80862226 -21.39453125 34.15625 C-21.39453125 33.49625 -21.39453125 32.83625 -21.39453125 32.15625 C-22.38453125 31.82625 -23.37453125 31.49625 -24.39453125 31.15625 C-24.39453125 30.49625 -24.39453125 29.83625 -24.39453125 29.15625 C-25.38453125 28.82625 -26.37453125 28.49625 -27.39453125 28.15625 C-29.19814632 23.40989454 -29.69179696 19.20976699 -29.39453125 14.15625 C-29.06453125 13.49625 -28.73453125 12.83625 -28.39453125 12.15625 C-27.40453125 12.48625 -26.41453125 12.81625 -25.39453125 13.15625 C-25.72453125 16.78625 -26.05453125 20.41625 -26.39453125 24.15625 C-23.91953125 25.14625 -23.91953125 25.14625 -21.39453125 26.15625 C-21.06453125 27.14625 -20.73453125 28.13625 -20.39453125 29.15625 C-15.35301421 32.51726136 -10.27663043 32.81913364 -4.39453125 33.15625 C-4.20890625 32.0425 -4.02328125 30.92875 -3.83203125 29.78125 C-3.35765625 28.585 -2.88328125 27.38875 -2.39453125 26.15625 C1.23046875 24.71875 1.23046875 24.71875 4.60546875 24.15625 C4.78296442 19.00887548 4.77850806 14.93693648 2.60546875 10.15625 C1.310759 8.78538085 -0.01604022 7.44284163 -1.39453125 6.15625 C-1.39453125 5.49625 -1.39453125 4.83625 -1.39453125 4.15625 C-2.42578125 3.82625 -3.45703125 3.49625 -4.51953125 3.15625 C-5.09960938 2.970625 -5.6796875 2.785 -6.27734375 2.59375 C-10.54608727 1.71164802 -13.41427595 1.6307388 -17.31640625 3.72265625 C-18.2496875 4.38136719 -19.18296875 5.04007812 -20.14453125 5.71875 C-21.85750285 6.9192342 -23.60060856 8.08048264 -25.39453125 9.15625 C-26.05453125 8.82625 -26.71453125 8.49625 -27.39453125 8.15625 C-20.40469335 -0.83068445 -11.17915199 -3.93914654 0 0 Z " fill="#D38F68" transform="translate(128.39453125,103.84375)"/>
<path d="M0 0 C0 3 0 6 0 9 C-1.65 9 -3.3 9 -5 9 C-5 9.99 -5 10.98 -5 12 C-4.34 12 -3.68 12 -3 12 C-3.3125 13.9375 -3.3125 13.9375 -4 16 C-4.99 16.33 -5.98 16.66 -7 17 C-8.0248753 18.76033623 -8.0248753 18.76033623 -8 21 C-7.525625 21.721875 -7.05125 22.44375 -6.5625 23.1875 C-4.37513285 27.12476086 -4.74069932 30.5918884 -5 35 C-5.99 35 -6.98 35 -8 35 C-8.1953125 33.01432292 -8.390625 31.02864583 -8.5859375 29.04296875 C-8.92665391 26.70011858 -8.92665391 26.70011858 -11 24 C-11.39013716 22.0103005 -11.73202649 20.00980131 -12 18 C-14.58075024 17.44183774 -17.16308901 16.9031237 -19.75 16.375 C-20.84441406 16.13523437 -20.84441406 16.13523437 -21.9609375 15.890625 C-26.20190384 15.03258465 -26.20190384 15.03258465 -30.3828125 15.8046875 C-34.71211604 19.00460751 -36.75203446 21.69614646 -38 27 C-38.30540073 32.39541281 -37.678682 37.65537924 -37 43 C-37.99 43 -38.98 43 -40 43 C-43.5650245 37.50392057 -43.71482073 32.34174287 -43 26 C-42.22768365 23.42561217 -41.27246272 21.38586759 -40 19 C-39.34 19 -38.68 19 -38 19 C-37.74992187 18.37738281 -37.49984375 17.75476563 -37.2421875 17.11328125 C-35.35603269 13.90444555 -33.15625876 13.50673893 -29.71484375 12.44140625 C-26.53726469 11.9247639 -23.87499887 12.21534592 -20.6875 12.625 C-17.68909748 13.04708405 -17.68909748 13.04708405 -15 13 C-12.46808501 10.81501244 -12.46808501 10.81501244 -11 8 C-9.33607955 7.32650839 -7.66967972 6.6590841 -6 6 C-5.30062468 4.68352881 -4.63270867 3.34977849 -4 2 C-1.875 0.75 -1.875 0.75 0 0 Z " fill="#E59A67" transform="translate(44,40)"/>
<path d="M0 0 C0.66 0.66 1.32 1.32 2 2 C-1.58088433 4.38725622 -2.81433326 3.780069 -6.8828125 3.19140625 C-11.20429971 2.80071829 -14.41253745 3.68937971 -17.76953125 6.4609375 C-21.60278051 10.7161135 -22.33395767 13.99129527 -22.25 19.6875 C-22.17265625 20.76386719 -22.0953125 21.84023437 -22.015625 22.94921875 C-21.99917777 26.16054041 -22.61664133 28.13219107 -24 31 C-24.66 31 -25.32 31 -26 31 C-26.309375 31.61875 -26.61875 32.2375 -26.9375 32.875 C-27.625 34.25 -28.3125 35.625 -29 37 C-27.68 36.34 -26.36 35.68 -25 35 C-24 37.5 -24 37.5 -24 41 C-26.31412978 44.06718389 -28.9675376 46.64341186 -32 49 C-32.66 49 -33.32 49 -34 49 C-34 49.66 -34 50.32 -34 51 C-34.66 51 -35.32 51 -36 51 C-35.125 46.25 -35.125 46.25 -34 44 C-36.98312235 45.66703896 -39.6103609 47.45862294 -42.1875 49.6875 C-45 52 -45 52 -47 52 C-46.8125 50.125 -46.8125 50.125 -46 48 C-45.195625 47.690625 -44.39125 47.38125 -43.5625 47.0625 C-42.716875 46.711875 -41.87125 46.36125 -41 46 C-40.67 45.175 -40.34 44.35 -40 43.5 C-39 41 -39 41 -36.375 39.6875 C-35.59125 39.460625 -34.8075 39.23375 -34 39 C-34 38.01 -34 37.02 -34 36 C-33.34 36 -32.68 36 -32 36 C-32 35.34 -32 34.68 -32 34 C-31.01 34 -30.02 34 -29 34 C-29 33.34 -29 32.68 -29 32 C-28.34 32 -27.68 32 -27 32 C-27 31.01 -27 30.02 -27 29 C-26.34 29 -25.68 29 -25 29 C-25.33 28.01 -25.66 27.02 -26 26 C-28.0038975 18.84940173 -27.29883661 13.59767323 -24 7 C-23.34 7 -22.68 7 -22 7 C-22 6.01 -22 5.02 -22 4 C-21.34 4 -20.68 4 -20 4 C-20 3.34 -20 2.68 -20 2 C-13.19518447 -0.56266457 -7.18107346 -1.83669764 0 0 Z " fill="#DE9165" transform="translate(126,53)"/>
<path d="M0 0 C0.99 0.33 1.98 0.66 3 1 C2.0925 1.721875 1.185 2.44375 0.25 3.1875 C-2.57633275 5.52722358 -4.74505038 8.10077905 -7 11 C-7.66 11.33 -8.32 11.66 -9 12 C-9 14.64 -9 17.28 -9 20 C-8.34 20 -7.68 20 -7 20 C-6.42917476 27.19239808 -7.43200618 32.23532048 -12 38 C-13.485 38.495 -13.485 38.495 -15 39 C-15 39.66 -15 40.32 -15 41 C-18.62451689 43.27775126 -21.71576335 43.26802235 -25.9375 43.25 C-27.14277344 43.25515625 -28.34804688 43.2603125 -29.58984375 43.265625 C-33.77976003 42.93926268 -36.6129205 42.24591654 -39.765625 39.4140625 C-40.25546875 38.82367188 -40.7453125 38.23328125 -41.25 37.625 C-41.75015625 37.03976563 -42.2503125 36.45453125 -42.765625 35.8515625 C-45.23110936 32.15333596 -45.11430355 28.60149784 -45.0625 24.25 C-45.05347656 23.26515625 -45.04445312 22.2803125 -45.03515625 21.265625 C-45.02355469 20.51796875 -45.01195312 19.7703125 -45 19 C-42.79334596 22.30998105 -42.21737905 24.82021436 -41.375 28.6875 C-41.11460938 29.86699219 -40.85421875 31.04648438 -40.5859375 32.26171875 C-40.39257812 33.16535156 -40.19921875 34.06898438 -40 35 C-39.01 35 -38.02 35 -37 35 C-36.78601562 35.639375 -36.57203125 36.27875 -36.3515625 36.9375 C-35.15229491 39.25264368 -35.15229491 39.25264368 -32.4609375 39.75 C-25.23230531 40.33561071 -21.1935202 39.78492901 -15 36 C-14.34 36 -13.68 36 -13 36 C-11.97301714 29.83810282 -11.92899292 23.77975019 -12.03710938 17.54882812 C-12.07627782 14.40631373 -12.00255462 12.00766386 -11 9 C-9.68 9 -8.36 9 -7 9 C-6.67 7.68 -6.34 6.36 -6 5 C-5.34 5 -4.68 5 -4 5 C-3.67 4.01 -3.34 3.02 -3 2 C-2.01 2 -1.02 2 0 2 C0 1.34 0 0.68 0 0 Z " fill="#CD9472" transform="translate(46,97)"/>
<path d="M0 0 C1.32 0.33 2.64 0.66 4 1 C3.01 3.31 2.02 5.62 1 8 C0.34 8 -0.32 8 -1 8 C-0.91284983 9.93833996 -0.80467036 11.8757429 -0.6875 13.8125 C-0.62949219 14.89144531 -0.57148437 15.97039062 -0.51171875 17.08203125 C0.04923282 20.28073982 0.67080696 20.92058638 3 23 C3 23.99 3 24.98 3 26 C3.804375 26.144375 4.60875 26.28875 5.4375 26.4375 C8 27 8 27 9 28 C11.01964199 28.07244053 13.04167124 28.08377188 15.0625 28.0625 C16.16722656 28.05347656 17.27195312 28.04445312 18.41015625 28.03515625 C19.26480469 28.02355469 20.11945313 28.01195312 21 28 C21.33 27.34 21.66 26.68 22 26 C22.66 26 23.32 26 24 26 C23.625 28.4375 23.625 28.4375 23 31 C20.0586446 32.4706777 17.39772595 32.17048999 14.125 32.1875 C12.89007813 32.20167969 11.65515625 32.21585938 10.3828125 32.23046875 C7.25913288 32.01765455 5.59938404 31.65237226 3 30 C3 29.34 3 28.68 3 28 C2.4225 27.814375 1.845 27.62875 1.25 27.4375 C-2.09489248 25.30048536 -3.71128923 22.66334026 -5 19 C-5.95549178 13.10926169 -5.68941151 8.43736636 -2.5 3.3125 C-1.69064243 2.19064048 -0.8656727 1.07899919 0 0 Z " fill="#E59A6E" transform="translate(55,108)"/>
<path d="M0 0 C-2 3 -2 3 -4.1640625 3.73046875 C-5.38222656 3.95669922 -5.38222656 3.95669922 -6.625 4.1875 C-7.85089844 4.42533203 -7.85089844 4.42533203 -9.1015625 4.66796875 C-10.04128906 4.83232422 -10.04128906 4.83232422 -11 5 C-11.144375 6.134375 -11.28875 7.26875 -11.4375 8.4375 C-12 12 -12 12 -13 13 C-13.16666667 16.5 -13.16666667 16.5 -13 20 C-12.67 20.33 -12.34 20.66 -12 21 C-11.35893007 24.44988147 -11.28536639 27.55954963 -12 31 C-13.76949212 33.20757026 -15.63193336 34.70866863 -17.8984375 36.39453125 C-19.91735942 37.93686751 -21.28365413 39.42561387 -22.8125 41.4375 C-23.8953125 42.7059375 -23.8953125 42.7059375 -25 44 C-27 44 -29 44 -31 44 C-25.72 38.72 -20.44 33.44 -15 28 C-15.66 26.68 -16.32 25.36 -17 24 C-18.23251043 16.5812353 -16.75017034 11.3801161 -12.80078125 5.09375 C-9.03295297 0.71293447 -5.68417968 -0.39657068 0 0 Z " fill="#D49368" transform="translate(67,53)"/>
<path d="M0 0 C0 0.66 0 1.32 0 2 C-1.32 2.33 -2.64 2.66 -4 3 C-4 3.99 -4 4.98 -4 6 C-4.969375 6.845625 -5.93875 7.69125 -6.9375 8.5625 C-10.57124636 11.95628198 -10.80906136 15.10928336 -11.08984375 19.92578125 C-11.23447847 21.99080324 -11.23447847 21.99080324 -10 23 C-9.95919217 24.99958364 -9.95745644 27.00045254 -10 29 C-8.824375 29.309375 -8.824375 29.309375 -7.625 29.625 C-5 31 -5 31 -3.6875 34.125 C-3.460625 35.07375 -3.23375 36.0225 -3 37 C-10.13460429 33.24221085 -13.40896418 29.77310745 -16 22 C-16.52861616 15.12798987 -14.7992466 10.07496789 -10.5625 4.6875 C-6.87079802 0.815715 -5.35891979 0 0 0 Z " fill="#D79369" transform="translate(115,2)"/>
<path d="M0 0 C4.67623652 1.50307602 5.85884357 4.8653531 8 9 C9.9937211 12.9874422 9.51476423 17.66545119 9 22 C6.88926842 27.50427846 3.40219958 31.55372094 -2 34 C-5.36347786 34.30256173 -8.63437033 34.23945191 -12 34 C-12 33.67 -12 33.34 -12 33 C-10.989375 32.79375 -9.97875 32.5875 -8.9375 32.375 C-2.96118091 30.64150379 0.83271199 26.93332077 4 21.6875 C5.23715493 17.12549121 4.91512831 13.58411496 4 9 C3.88140625 8.27167969 3.7628125 7.54335938 3.640625 6.79296875 C3.42921875 6.20128906 3.2178125 5.60960937 3 5 C2.01 4.67 1.02 4.34 0 4 C0 2.68 0 1.36 0 0 Z " fill="#CC9166" transform="translate(128,55)"/>
<path d="M0 0 C-6.75 3 -6.75 3 -9 3 C-9.2475 3.70125 -9.495 4.4025 -9.75 5.125 C-11 8 -11 8 -13.125 10.8125 C-15.38611031 14.65638752 -15.72014045 17.68743476 -15 22 C-14.17847612 24.48334934 -13.17531508 26.64936983 -12 29 C-13.875 29.625 -13.875 29.625 -16 30 C-19.33483285 26.66516715 -19.15582673 23.12978623 -19.1875 18.5625 C-19.20167969 17.63566406 -19.21585938 16.70882813 -19.23046875 15.75390625 C-18.80502231 10.67018183 -17.12335441 7.64419 -13.3125 4.3125 C-9.64450501 1.24581566 -4.84655017 -2.42327508 0 0 Z " fill="#CE8F6A" transform="translate(20,2)"/>
<path d="M0 0 C1.32 0.66 2.64 1.32 4 2 C3.34 3.65 2.68 5.3 2 7 C3.32 7 4.64 7 6 7 C6 6.34 6 5.68 6 5 C6.66 5.33 7.32 5.66 8 6 C7.67 6.66 7.34 7.32 7 8 C6.34 8 5.68 8 5 8 C5 8.66 5 9.32 5 10 C2.625 12.625 2.625 12.625 0 15 C-0.66 15 -1.32 15 -2 15 C-2 15.66 -2 16.32 -2 17 C-3.25 18.6875 -3.25 18.6875 -5 20 C-7.1875 19.6875 -7.1875 19.6875 -9 19 C-9 18.01 -9 17.02 -9 16 C-7.35 16 -5.7 16 -4 16 C-4.185625 15.05125 -4.37125 14.1025 -4.5625 13.125 C-5 10 -5 10 -4 8 C-4.99 7.67 -5.98 7.34 -7 7 C-5.37660195 5.29115995 -3.70680947 3.62553283 -2 2 C-1.34 2 -0.68 2 0 2 C0 1.34 0 0.68 0 0 Z " fill="#E89661" transform="translate(48,33)"/>
<path d="M0 0 C3.37277878 1.25076107 4.4589744 2.28169354 7 5 C8.4375 8.3125 8.4375 8.3125 9 11 C8.01 10.67 7.02 10.34 6 10 C6 9.34 6 8.68 6 8 C3.525 7.505 3.525 7.505 1 7 C1 6.34 1 5.68 1 5 C-0.03125 4.67 -1.0625 4.34 -2.125 4 C-2.70507812 3.814375 -3.28515625 3.62875 -3.8828125 3.4375 C-8.15155602 2.55539802 -11.0197447 2.4744888 -14.921875 4.56640625 C-15.85515625 5.22511719 -16.7884375 5.88382812 -17.75 6.5625 C-19.4629716 7.7629842 -21.20607731 8.92423264 -23 10 C-23.66 9.67 -24.32 9.34 -25 9 C-17.94740666 -0.06762001 -11.23925146 -1.2851787 0 0 Z " fill="#CE9469" transform="translate(126,103)"/>
<path d="M0 0 C0.66 0 1.32 0 2 0 C0.4762064 4.11424273 -2.40730126 6.64901742 -6 9 C-11.48174037 11.2754394 -16.29576162 11.3434281 -22 10 C-25.0625 8.4375 -25.0625 8.4375 -27 7 C-26.67 6.01 -26.34 5.02 -26 4 C-24.68 4 -23.36 4 -22 4 C-22 4.66 -22 5.32 -22 6 C-15.23339765 6.381416 -9.16354262 6.06286474 -3 3 C-1.99278007 2.00727244 -0.99148982 1.00843836 0 0 Z " fill="#E79C6D" transform="translate(84,29)"/>
<path d="M0 0 C-0.33 2.64 -0.66 5.28 -1 8 C-1.66 8 -2.32 8 -3 8 C-3 8.66 -3 9.32 -3 10 C-3.66 10 -4.32 10 -5 10 C-6.53166168 14.08443115 -5.63081652 17.79455657 -5 22 C-5.66 22 -6.32 22 -7 22 C-9 19 -9 19 -9 16 C-9.99 15.67 -10.98 15.34 -12 15 C-11.64950425 11.75791433 -11.43778819 10.38472296 -8.9375 8.1875 C-8.298125 7.795625 -7.65875 7.40375 -7 7 C-7.66 6.67 -8.32 6.34 -9 6 C-8.07213211 4.99105628 -7.13231567 3.99309093 -6.1875 3 C-5.66542969 2.443125 -5.14335938 1.88625 -4.60546875 1.3125 C-3 0 -3 0 0 0 Z " fill="#EB9A61" transform="translate(92,97)"/>
<path d="M0 0 C2.6267027 2.51725676 3.30268995 4.66058288 3.5 8.1875 C3.3157711 14.36940307 0.32325768 19.67674232 -4 24 C-5.32 24 -6.64 24 -8 24 C-7.505 22.515 -7.505 22.515 -7 21 C-6.34 21 -5.68 21 -5 21 C-5 19.68 -5 18.36 -5 17 C-4.34 16.67 -3.68 16.34 -3 16 C-2.6059614 13.58109851 -2.6059614 13.58109851 -2.5 10.75 C-2.28307474 6.73688269 -1.66137311 3.67109864 0 0 Z " fill="#D68F66" transform="translate(36,12)"/>
<path d="M0 0 C6.1409478 0.27293101 10.24057987 0.97279835 15 5 C15 5.66 15 6.32 15 7 C15.66 7 16.32 7 17 7 C17.99 9.97 18.98 12.94 20 16 C19.34 16 18.68 16 18 16 C17.67 15.01 17.34 14.02 17 13 C16.484375 12.484375 15.96875 11.96875 15.4375 11.4375 C14.963125 10.963125 14.48875 10.48875 14 10 C14 9.34 14 8.68 14 8 C10.99049877 6.38274466 8.02896392 5.32417377 4.75 4.375 C3.41195312 3.98441406 3.41195312 3.98441406 2.046875 3.5859375 C1.37140625 3.39257812 0.6959375 3.19921875 0 3 C0 2.01 0 1.02 0 0 Z " fill="#CF8B68" transform="translate(68,52)"/>
<path d="M0 0 C0.66 0.66 1.32 1.32 2 2 C-1.57759636 4.38506424 -2.8190058 3.80414927 -6.8828125 3.1640625 C-10.17052001 2.9092955 -12.90421387 3.96807129 -16 5 C-17.99488234 5.36270588 -19.9937811 5.70640699 -22 6 C-22 5.34 -22 4.68 -22 4 C-21.34 4 -20.68 4 -20 4 C-20 3.34 -20 2.68 -20 2 C-13.19518447 -0.56266457 -7.18107346 -1.83669764 0 0 Z " fill="#BE8260" transform="translate(126,53)"/>
<path d="M0 0 C0.61875 0.165 1.2375 0.33 1.875 0.5 C5.55994552 1.08959128 9.06981169 1.02681111 12.79296875 0.9375 C15 1 15 1 17 2 C17 2.99 17 3.98 17 5 C15.27277272 5.22384382 13.54303993 5.42839969 11.8125 5.625 C10.36810547 5.79902344 10.36810547 5.79902344 8.89453125 5.9765625 C5.72176129 6.00225295 3.79343367 5.47652922 1 4 C0.1875 1.875 0.1875 1.875 0 0 Z " fill="#EAA076" transform="translate(10,34)"/>
<path d="M0 0 C0 0.66 0 1.32 0 2 C-1.65 2 -3.3 2 -5 2 C-5 2.66 -5 3.32 -5 4 C-4.34 4.33 -3.68 4.66 -3 5 C-5.64 7.31 -8.28 9.62 -11 12 C-11.33 11.01 -11.66 10.02 -12 9 C-12.33 9.66 -12.66 10.32 -13 11 C-13.66 11 -14.32 11 -15 11 C-13.85163334 6.1194417 -10.96140892 4.0496699 -7.16796875 1.13671875 C-4.60137997 -0.20900618 -2.85813928 -0.21448515 0 0 Z " fill="#BF7D57" transform="translate(17,103)"/>
<path d="M0 0 C0.33 0 0.66 0 1 0 C0.88512252 1.58409994 0.75765492 3.16728963 0.625 4.75 C0.55539063 5.63171875 0.48578125 6.5134375 0.4140625 7.421875 C0.00149945 9.99066382 -0.71160957 11.75841015 -2 14 C-2.66 14 -3.32 14 -4 14 C-4.66 15.32 -5.32 16.64 -6 18 C-7.125 16.3125 -7.125 16.3125 -8 14 C-7.08326247 10.86781344 -5.81982071 8.72973106 -4 6 C-3.34 6 -2.68 6 -2 6 C-2 5.01 -2 4.02 -2 3 C-1.34 3 -0.68 3 0 3 C0 2.01 0 1.02 0 0 Z " fill="#C0815F" transform="translate(87,69)"/>
<path d="M0 0 C0 3 0 6 0 9 C-1.65 9 -3.3 9 -5 9 C-5 9.99 -5 10.98 -5 12 C-4.34 12 -3.68 12 -3 12 C-3 12.66 -3 13.32 -3 14 C-3.99 14 -4.98 14 -6 14 C-6.33 14.66 -6.66 15.32 -7 16 C-7 15.01 -7 14.02 -7 13 C-7.99 12.67 -8.98 12.34 -10 12 C-10 11.01 -10 10.02 -10 9 C-9.21625 8.79375 -8.4325 8.5875 -7.625 8.375 C-4.68861556 7.21128486 -4.68861556 7.21128486 -3.875 3.9375 C-3.441875 2.4834375 -3.441875 2.4834375 -3 1 C-2.01 0.67 -1.02 0.34 0 0 Z " fill="#E89D6D" transform="translate(44,40)"/>
<path d="M0 0 C0.66 0 1.32 0 2 0 C2 0.66 2 1.32 2 2 C2.639375 2.12375 3.27875 2.2475 3.9375 2.375 C4.618125 2.58125 5.29875 2.7875 6 3 C7.29376578 5.58753156 7.16832397 7.54958985 7.1875 10.4375 C7.20167969 11.40558594 7.21585938 12.37367187 7.23046875 13.37109375 C7 16 7 16 5 19 C4.01 18.67 3.02 18.34 2 18 C2.33 17.67 2.66 17.34 3 17 C3.26653253 11.75819358 2.95284686 7.93955382 1 3 C0.67 2.01 0.34 1.02 0 0 Z " fill="#D7986B" transform="translate(130,111)"/>
<path d="M0 0 C0 5.14692091 -2.62875287 7.97913735 -5.9375 11.75 C-6.62714844 12.54921875 -7.31679688 13.3484375 -8.02734375 14.171875 C-10.70872062 16.65679456 -12.44329298 16 -16 16 C-10.72 10.72 -5.44 5.44 0 0 Z " fill="#BA7F58" transform="translate(52,81)"/>
<path d="M0 0 C2.20665404 3.30998105 2.78262095 5.82021436 3.625 9.6875 C3.88539062 10.86699219 4.14578125 12.04648438 4.4140625 13.26171875 C4.60742188 14.16535156 4.80078125 15.06898438 5 16 C5.99 16 6.98 16 8 16 C9.0625 17.875 9.0625 17.875 10 20 C9.67 20.66 9.34 21.32 9 22 C7 22 7 22 5.52734375 20.609375 C5.00269531 19.99578125 4.47804688 19.3821875 3.9375 18.75 C3.41027344 18.14671875 2.88304687 17.5434375 2.33984375 16.921875 C-0.24846621 13.20919715 -0.11520726 9.67740945 -0.0625 5.25 C-0.05347656 4.26515625 -0.04445312 3.2803125 -0.03515625 2.265625 C-0.02355469 1.51796875 -0.01195313 0.7703125 0 0 Z " fill="#A87A5A" transform="translate(1,116)"/>
<path d="M0 0 C0.99 0.33 1.98 0.66 3 1 C2.67 1.99 2.34 2.98 2 4 C-2.72749644 5.52241411 -7.00460969 6.46468747 -12 6 C-12.99 5.34 -13.98 4.68 -15 4 C-15 3.34 -15 2.68 -15 2 C-14.25234375 2.02320312 -13.5046875 2.04640625 -12.734375 2.0703125 C-11.74953125 2.08835937 -10.7646875 2.10640625 -9.75 2.125 C-8.77546875 2.14820312 -7.8009375 2.17140625 -6.796875 2.1953125 C-3.9400833 1.99581587 -2.49977236 1.27125176 0 0 Z " fill="#D08D62" transform="translate(77,84)"/>
<path d="M0 0 C0.66 0.66 1.32 1.32 2 2 C1.67 2.66 1.34 3.32 1 4 C2.134375 4.12375 3.26875 4.2475 4.4375 4.375 C5.613125 4.58125 6.78875 4.7875 8 5 C8.33 5.66 8.66 6.32 9 7 C8.67 7.66 8.34 8.32 8 9 C5.525 8.01 5.525 8.01 3 7 C3 7.66 3 8.32 3 9 C2.34 9 1.68 9 1 9 C1 9.66 1 10.32 1 11 C0.01 11 -0.98 11 -2 11 C-2.19622241 6.78121808 -1.80230168 3.82989106 0 0 Z " fill="#D58F65" transform="translate(104,80)"/>
<path d="M0 0 C2 3 2 3 2 5 C2.721875 5.12375 3.44375 5.2475 4.1875 5.375 C7 6 7 6 9.3125 7.03125 C12.328538 8.11842649 14.61958134 8.2019378 17.8125 8.125 C18.78832031 8.10695312 19.76414062 8.08890625 20.76953125 8.0703125 C21.50558594 8.04710937 22.24164063 8.02390625 23 8 C21 10 21 10 17.8828125 10.265625 C16.02269531 10.25789062 16.02269531 10.25789062 14.125 10.25 C12.89007813 10.25515625 11.65515625 10.2603125 10.3828125 10.265625 C7.27811666 10.02183826 5.58960304 9.63964816 3 8 C3 7.34 3 6.68 3 6 C2.360625 5.731875 1.72125 5.46375 1.0625 5.1875 C-1 4 -1 4 -2 1 C-1.34 0.67 -0.68 0.34 0 0 Z " fill="#C27F64" transform="translate(55,130)"/>
<path d="M0 0 C0 0.66 0 1.32 0 2 C-1.32 2.33 -2.64 2.66 -4 3 C-4 3.99 -4 4.98 -4 6 C-5.53125 7.60546875 -5.53125 7.60546875 -7.5 9.1875 C-8.1496875 9.71730469 -8.799375 10.24710938 -9.46875 10.79296875 C-9.9740625 11.19128906 -10.479375 11.58960938 -11 12 C-11 11.01 -11 10.02 -11 9 C-11.99 9 -12.98 9 -14 9 C-13.0919838 7.86800647 -12.17316174 6.74467637 -11.25 5.625 C-10.73953125 4.99851562 -10.2290625 4.37203125 -9.703125 3.7265625 C-6.53582282 0.5156736 -4.53826729 0 0 0 Z " fill="#D58D60" transform="translate(115,2)"/>
<path d="M0 0 C0.99 0.33 1.98 0.66 3 1 C2.0925 1.721875 1.185 2.44375 0.25 3.1875 C-2.57633275 5.52722358 -4.74505038 8.10077905 -7 11 C-7.99 11.495 -7.99 11.495 -9 12 C-9 13.98 -9 15.96 -9 18 C-9.99 18.33 -10.98 18.66 -12 19 C-12.125 12.375 -12.125 12.375 -11 9 C-9.68 9 -8.36 9 -7 9 C-6.67 7.68 -6.34 6.36 -6 5 C-5.34 5 -4.68 5 -4 5 C-3.67 4.01 -3.34 3.02 -3 2 C-2.01 2 -1.02 2 0 2 C0 1.34 0 0.68 0 0 Z " fill="#C07D5B" transform="translate(46,97)"/>
<path d="M0 0 C0.66 0 1.32 0 2 0 C1.67 1.32 1.34 2.64 1 4 C0.34 4 -0.32 4 -1 4 C-1.2475 4.556875 -1.495 5.11375 -1.75 5.6875 C-4.35864753 10.51349792 -7.21815522 13.36998537 -12 16 C-13.34631825 16.98244845 -14.68441297 17.97676564 -16 19 C-15.3125 16.625 -15.3125 16.625 -14 14 C-11.375 12.6875 -11.375 12.6875 -9 12 C-9 11.01 -9 10.02 -9 9 C-8.34 9 -7.68 9 -7 9 C-7 8.34 -7 7.68 -7 7 C-6.01 7 -5.02 7 -4 7 C-4 6.34 -4 5.68 -4 5 C-3.34 5 -2.68 5 -2 5 C-2 4.01 -2 3.02 -2 2 C-1.34 2 -0.68 2 0 2 C0 1.34 0 0.68 0 0 Z " fill="#AC7856" transform="translate(101,80)"/>
<path d="M0 0 C2.76395617 2.64879133 3.26536496 4.80286289 3.375 8.5 C3.26536496 12.19713711 2.76395617 14.35120867 0 17 C-1.02835363 13.91493912 -1.13368434 11.7305728 -1.125 8.5 C-1.12757812 7.5409375 -1.13015625 6.581875 -1.1328125 5.59375 C-1 3 -1 3 0 0 Z " fill="#9E6D47" transform="translate(36,12)"/>
<path d="M0 0 C3.96 0 7.92 0 12 0 C12 0.66 12 1.32 12 2 C12.66 2 13.32 2 14 2 C14 2.66 14 3.32 14 4 C9.05 3.67 4.1 3.34 -1 3 C-0.67 2.01 -0.34 1.02 0 0 Z " fill="#E59F77" transform="translate(63,103)"/>
<path d="M0 0 C-6.75 3 -6.75 3 -9 3 C-9.33 3.99 -9.66 4.98 -10 6 C-12.46103687 8.88535357 -14.19985035 10.45712148 -18 11 C-15.78395903 6.00580035 -12.07948254 2.36659767 -7.0546875 0.13671875 C-2.51732513 -1.25866256 -2.51732513 -1.25866256 0 0 Z " fill="#A67356" transform="translate(20,2)"/>
<path d="M0 0 C1.60670684 3.21341369 0.82510855 6.62958968 0.5625 10.125 C0.51029297 10.87910156 0.45808594 11.63320312 0.40429688 12.41015625 C0.27454996 14.2737937 0.13792512 16.13694996 0 18 C0.66 18 1.32 18 2 18 C1.67 19.32 1.34 20.64 1 22 C-1.0460668 18.93089979 -1.50913306 17.19311799 -2.125 13.625 C-2.29257812 12.68914062 -2.46015625 11.75328125 -2.6328125 10.7890625 C-2.97990588 8.15262977 -3.06758274 5.65503612 -3 3 C-2.34 3 -1.68 3 -1 3 C-0.67 2.01 -0.34 1.02 0 0 Z " fill="#E89E70" transform="translate(5,111)"/>
<path d="M0 0 C1.65 0.33 3.3 0.66 5 1 C1.30355207 4.82391165 -1.29207787 7.15583286 -6.6875 7.625 C-7.49574219 7.69976562 -8.30398437 7.77453125 -9.13671875 7.8515625 C-10.05904297 7.92503906 -10.05904297 7.92503906 -11 8 C-11.33 7.34 -11.66 6.68 -12 6 C-6.555 5.01 -6.555 5.01 -1 4 C-0.67 2.68 -0.34 1.36 0 0 Z " fill="#AD7859" transform="translate(128,32)"/>
<path d="M0 0 C0.88042969 0.08378906 1.76085938 0.16757813 2.66796875 0.25390625 C4.41013672 0.40666016 4.41013672 0.40666016 6.1875 0.5625 C7.33605469 0.66691406 8.48460937 0.77132812 9.66796875 0.87890625 C12.68631199 0.98859985 15.08923936 0.74002389 18 0 C16.875 1.9765625 16.875 1.9765625 15 4 C12.1875 4.4609375 12.1875 4.4609375 9 4.375 C7.4221875 4.35566406 7.4221875 4.35566406 5.8125 4.3359375 C3 4 3 4 0 2 C0 1.34 0 0.68 0 0 Z " fill="#DA9772" transform="translate(10,136)"/>
<path d="M0 0 C0.99 0.33 1.98 0.66 3 1 C3 6.28 3 11.56 3 17 C1 16 1 16 -0.125 12.875 C-1.10413182 8.53884479 -2.05812589 4.11625178 0 0 Z " fill="#B37D5B" transform="translate(100,116)"/>
<path d="M0 0 C1 3 1 3 0 6 C-1.32 6 -2.64 6 -4 6 C-4.12375 6.639375 -4.2475 7.27875 -4.375 7.9375 C-4.58125 8.618125 -4.7875 9.29875 -5 10 C-5.99 10.495 -5.99 10.495 -7 11 C-6.67 9.68 -6.34 8.36 -6 7 C-7.65 7.33 -9.3 7.66 -11 8 C-11 7.34 -11 6.68 -11 6 C-9.35 6 -7.7 6 -6 6 C-5.67 5.01 -5.34 4.02 -5 3 C-2.4375 1.3125 -2.4375 1.3125 0 0 Z " fill="#EE9862" transform="translate(39,100)"/>
<path d="M0 0 C2.125 0.375 2.125 0.375 4 1 C3.67 2.65 3.34 4.3 3 6 C0.69 6.66 -1.62 7.32 -4 8 C-2.25 2.25 -2.25 2.25 0 0 Z " fill="#E99662" transform="translate(47,90)"/>
<path d="M0 0 C0.33 1.32 0.66 2.64 1 4 C-0.98 4.66 -2.96 5.32 -5 6 C-5.0825 6.78375 -5.165 7.5675 -5.25 8.375 C-6 11 -6 11 -7.875 12.3125 C-10 13 -10 13 -13 13 C-13.33 12.01 -13.66 11.02 -14 10 C-13.278125 9.938125 -12.55625 9.87625 -11.8125 9.8125 C-8.15130298 8.75482086 -6.59192164 6.72833857 -4 4 C-3.01 3.67 -2.02 3.34 -1 3 C-0.67 2.01 -0.34 1.02 0 0 Z " fill="#BD8668" transform="translate(39,43)"/>
<path d="M0 0 C3.63 0 7.26 0 11 0 C11 0.66 11 1.32 11 2 C10.37351562 2.02578125 9.74703125 2.0515625 9.1015625 2.078125 C8.28429687 2.13484375 7.46703125 2.1915625 6.625 2.25 C5.81289063 2.29640625 5.00078125 2.3428125 4.1640625 2.390625 C1.81161073 2.7922092 1.81161073 2.7922092 0.7109375 5.046875 C0.47632813 5.69140625 0.24171875 6.3359375 0 7 C-0.99 7 -1.98 7 -3 7 C-2.34 6.34 -1.68 5.68 -1 5 C-0.67 3.35 -0.34 1.7 0 0 Z " fill="#E09668" transform="translate(58,4)"/>
<path d="M0 0 C-0.97202006 2.48919424 -1.5326334 3.7448997 -3.91796875 5.046875 C-8.80973145 6.56239529 -12.87819117 7.32692397 -18 7 C-18 6.34 -18 5.68 -18 5 C-10.25 3.875 -10.25 3.875 -8 5 C-8 4.34 -8 3.68 -8 3 C-2.25 0 -2.25 0 0 0 Z " fill="#B76A4F" transform="translate(34,83)"/>
<path d="M0 0 C0.66 0 1.32 0 2 0 C1.814375 0.495 1.62875 0.99 1.4375 1.5 C0.79860704 5.15081689 1.45094709 8.33964724 2 12 C1.34 12 0.68 12 0 12 C-2.03435531 8.27034861 -3 6.33094958 -3 2 C-2.01 2 -1.02 2 0 2 C0 1.34 0 0.68 0 0 Z " fill="#C08A60" transform="translate(85,107)"/>
<path d="M0 0 C3.03715366 3.03715366 3.07160307 5.84316359 3.1875 10 C3.15811937 13.14960406 2.78768134 15.31847799 1 18 C0.04380267 14.00204108 -0.1039592 10.29196078 -0.0625 6.1875 C-0.05347656 5.02605469 -0.04445313 3.86460938 -0.03515625 2.66796875 C-0.02355469 1.78753906 -0.01195313 0.90710937 0 0 Z " fill="#B6765C" transform="translate(85,11)"/>
<path d="M0 0 C-2 3 -2 3 -4.1640625 3.73046875 C-5.38222656 3.95669922 -5.38222656 3.95669922 -6.625 4.1875 C-7.85089844 4.42533203 -7.85089844 4.42533203 -9.1015625 4.66796875 C-10.04128906 4.83232422 -10.04128906 4.83232422 -11 5 C-11 6.65 -11 8.3 -11 10 C-11.33 9.34 -11.66 8.68 -12 8 C-12.66 7.67 -13.32 7.34 -14 7 C-6.88621076 -0.30605381 -6.88621076 -0.30605381 0 0 Z " fill="#B78464" transform="translate(67,53)"/>
<path d="M0 0 C2.64 0.33 5.28 0.66 8 1 C7.34 2.32 6.68 3.64 6 5 C5.34 4.34 4.68 3.68 4 3 C2.35 4.32 0.7 5.64 -1 7 C-1.66 6.67 -2.32 6.34 -3 6 C-2.01 4.02 -1.02 2.04 0 0 Z " fill="#DB8F5B" transform="translate(127,129)"/>
<path d="M0 0 C0.99 0.66 1.98 1.32 3 2 C-2.22468764 6.39973696 -6.30713088 6.47617251 -13 6 C-13 5.67 -13 5.34 -13 5 C-11.96875 4.731875 -10.9375 4.46375 -9.875 4.1875 C-6.3514958 3.19001103 -3.23119173 1.7338102 0 0 Z " fill="#C38967" transform="translate(129,83)"/>
<path d="M0 0 C0.99 0.33 1.98 0.66 3 1 C3.33 1.99 3.66 2.98 4 4 C4.66 4.33 5.32 4.66 6 5 C6 7.64 6 10.28 6 13 C5.01 13 4.02 13 3 13 C2.87625 11.783125 2.7525 10.56625 2.625 9.3125 C2.21108694 5.93520941 1.45426549 3.10243305 0 0 Z " fill="#D99F79" transform="translate(33,62)"/>
<path d="M0 0 C1.485 0.99 1.485 0.99 3 2 C3 2.66 3 3.32 3 4 C3.66 4 4.32 4 5 4 C5.99 6.97 6.98 9.94 8 13 C7.34 13 6.68 13 6 13 C5.67 12.01 5.34 11.02 5 10 C4.484375 9.484375 3.96875 8.96875 3.4375 8.4375 C2.963125 7.963125 2.48875 7.48875 2 7 C2 6.34 2 5.68 2 5 C1.34 5 0.68 5 0 5 C0 3.35 0 1.7 0 0 Z " fill="#A46D52" transform="translate(80,55)"/>
<path d="M0 0 C1.98 0.495 1.98 0.495 4 1 C4 1.66 4 2.32 4 3 C4.66 3.33 5.32 3.66 6 4 C6 4.66 6 5.32 6 6 C5.34 6 4.68 6 4 6 C4 6.66 4 7.32 4 8 C2.68 8 1.36 8 0 8 C-0.33 8.66 -0.66 9.32 -1 10 C-0.835 9.0925 -0.67 8.185 -0.5 7.25 C0.10137146 3.88912497 0.10137146 3.88912497 0 0 Z " fill="#E59D6E" transform="translate(50,32)"/>
<path d="M0 0 C0.33 0.66 0.66 1.32 1 2 C-0.375 4 -0.375 4 -2 6 C-2.66 6 -3.32 6 -4 6 C-4 6.66 -4 7.32 -4 8 C-5.98 8.66 -7.96 9.32 -10 10 C-9.67 9.01 -9.34 8.02 -9 7 C-8.34 7 -7.68 7 -7 7 C-6.67 6.01 -6.34 5.02 -6 4 C-3.9375 3.3125 -3.9375 3.3125 -2 3 C-2 2.34 -2 1.68 -2 1 C-1.34 0.67 -0.68 0.34 0 0 Z " fill="#AB755D" transform="translate(35,130)"/>
<path d="M0 0 C2.31 0 4.62 0 7 0 C7 0.66 7 1.32 7 2 C7.99 2.33 8.98 2.66 10 3 C5.05 3.33 0.1 3.66 -5 4 C-4.67 3.34 -4.34 2.68 -4 2 C-2.68 2 -1.36 2 0 2 C0 1.34 0 0.68 0 0 Z " fill="#E19971" transform="translate(115,2)"/>
<path d="M0 0 C0.33 0.66 0.66 1.32 1 2 C-1.85276137 4.93200474 -4.65079784 7.64315404 -8 10 C-8.66 9.67 -9.32 9.34 -10 9 C-6.93906776 5.06451569 -4.50884026 2.31883213 0 0 Z " fill="#A16950" transform="translate(111,103)"/>
<path d="M0 0 C0.97079451 3.0202496 1.32756618 5.06038917 0 8 C-2.90696599 10.14197494 -4.35521088 11 -8 11 C-8 11.66 -8 12.32 -8 13 C-8.66 13 -9.32 13 -10 13 C-10 12.01 -10 11.02 -10 10 C-9.05125 9.9175 -8.1025 9.835 -7.125 9.75 C-3.96279175 9.35220672 -3.96279175 9.35220672 -2.75 7.25 C-2.5025 6.5075 -2.255 5.765 -2 5 C-1.62875 4.0925 -1.2575 3.185 -0.875 2.25 C-0.441875 1.13625 -0.441875 1.13625 0 0 Z " fill="#EC9E6C" transform="translate(34,75)"/>
<path d="M0 0 C0.33 0 0.66 0 1 0 C1.13277344 0.83144531 1.26554688 1.66289063 1.40234375 2.51953125 C1.57894531 3.60621094 1.75554688 4.69289063 1.9375 5.8125 C2.19853516 7.43091797 2.19853516 7.43091797 2.46484375 9.08203125 C2.93871921 12.04933356 2.93871921 12.04933356 4 15 C3.01 15 2.02 15 1 15 C-1.85689594 10.71465609 -1.34655647 7.03601927 -0.5 2.0625 C-0.335 1.381875 -0.17 0.70125 0 0 Z " fill="#DA9C7B" transform="translate(3,68)"/>
<path d="M0 0 C0.66 0 1.32 0 2 0 C1.67 1.65 1.34 3.3 1 5 C0.34 5 -0.32 5 -1 5 C-1 7.64 -1 10.28 -1 13 C-1.66 13 -2.32 13 -3 13 C-3.44539877 4.2404908 -3.44539877 4.2404908 0 0 Z " fill="#D79B73" transform="translate(53,61)"/>
<path d="M0 0 C0.66 0.33 1.32 0.66 2 1 C1.67 1.66 1.34 2.32 1 3 C0.34 3 -0.32 3 -1 3 C-1 3.66 -1 4.32 -1 5 C-3.375 7.625 -3.375 7.625 -6 10 C-6.66 10 -7.32 10 -8 10 C-8 8.68 -8 7.36 -8 6 C-6.68 5.34 -5.36 4.68 -4 4 C-4 3.34 -4 2.68 -4 2 C-2.68 2 -1.36 2 0 2 C0 1.34 0 0.68 0 0 Z " fill="#A36B52" transform="translate(54,38)"/>
<path d="M0 0 C1.45606519 4.52092968 0.27032841 7.51648796 -1 12 C-0.34 12.33 0.32 12.66 1 13 C-2.875 12.125 -2.875 12.125 -4 11 C-4.66 11 -5.32 11 -6 11 C-5 9 -4 7 -3 5 C-2.34 5 -1.68 5 -1 5 C-0.67 3.35 -0.34 1.7 0 0 Z " fill="#EEA168" transform="translate(103,79)"/>
<path d="M0 0 C1.32 0.66 2.64 1.32 4 2 C0.50912907 6.0042343 -1.64951939 7.62671065 -7 8 C-5.38405168 5.95880212 -3.7143618 3.95927063 -2 2 C-1.34 2 -0.68 2 0 2 C0 1.34 0 0.68 0 0 Z " fill="#C28862" transform="translate(48,33)"/>
<path d="M0 0 C0.33 0 0.66 0 1 0 C1 3.63 1 7.26 1 11 C0.01 10.67 -0.98 10.34 -2 10 C-2.33 10.66 -2.66 11.32 -3 12 C-2.88541307 10.56163249 -2.75790884 9.12429034 -2.625 7.6875 C-2.55539063 6.88699219 -2.48578125 6.08648437 -2.4140625 5.26171875 C-2 3 -2 3 0 0 Z " fill="#E0A27A" transform="translate(136,15)"/>
<path d="M0 0 C-1.65 0.66 -3.3 1.32 -5 2 C-5.12375 3.03125 -5.2475 4.0625 -5.375 5.125 C-5.93889814 8.62116846 -6.78682059 11.68397627 -8 15 C-8.33 15 -8.66 15 -9 15 C-9.25 8.375 -9.25 8.375 -7 5 C-6.835 4.13375 -6.67 3.2675 -6.5 2.375 C-6.335 1.59125 -6.17 0.8075 -6 0 C-3.50907189 -1.24546405 -2.58919267 -0.7767578 0 0 Z " fill="#EE9A67" transform="translate(62,58)"/>
<path d="M0 0 C1.2065625 0.0309375 1.2065625 0.0309375 2.4375 0.0625 C1.4475 1.5475 1.4475 1.5475 0.4375 3.0625 C-0.2225 3.0625 -0.8825 3.0625 -1.5625 3.0625 C-2.36719849 4.76362992 -2.36719849 4.76362992 -2.5625 7.0625 C-1.20435993 10.27962945 -1.20435993 10.27962945 0.4375 13.0625 C-2.5625 12.0625 -2.5625 12.0625 -3.8125 10.4375 C-4.87144648 7.08416948 -4.26817392 4.46256525 -3.5625 1.0625 C-2.5625 0.0625 -2.5625 0.0625 0 0 Z " fill="#92654A" transform="translate(38.5625,53.9375)"/>
<path d="M0 0 C4.29 0 8.58 0 13 0 C13 0.66 13 1.32 13 2 C4.57142857 3.42857143 4.57142857 3.42857143 0 1 C0 0.67 0 0.34 0 0 Z " fill="#B4795A" transform="translate(11,37)"/>
<path d="M0 0 C0.33 0 0.66 0 1 0 C1.042721 1.66611905 1.04063832 3.33382885 1 5 C0.67 5.33 0.34 5.66 0 6 C-0.23075082 7.34747084 -0.41153063 8.70377565 -0.5625 10.0625 C-0.7790625 12.0115625 -0.7790625 12.0115625 -1 14 C-1.33 12.68 -1.66 11.36 -2 10 C-2.66 10 -3.32 10 -4 10 C-3.4359146 6.05140217 -2.2568294 3.29120954 0 0 Z " fill="#B57A5B" transform="translate(54,109)"/>
<path d="M0 0 C4.83256305 0.41421969 6.82679218 2.46413986 10 6 C6.88742431 6 4.89234315 5.82638376 2 5 C2 4.34 2 3.68 2 3 C1.34 2.67 0.68 2.34 0 2 C0 1.34 0 0.68 0 0 Z " fill="#B67C5E" transform="translate(122,2)"/>
<path d="M0 0 C0 3 0 3 -2.5 5.6875 C-3.325 6.450625 -4.15 7.21375 -5 8 C-5 7.34 -5 6.68 -5 6 C-5.66 5.67 -6.32 5.34 -7 5 C-6.67 4.01 -6.34 3.02 -6 2 C-2.9375 0.8125 -2.9375 0.8125 0 0 Z " fill="#D6915E" transform="translate(108,58)"/>
<path d="M0 0 C0.66 0 1.32 0 2 0 C0.4169423 4.2742558 -2.50568404 6.26531794 -6 9 C-6.66 8.67 -7.32 8.34 -8 8 C-7.01 7.67 -6.02 7.34 -5 7 C-5.33 6.01 -5.66 5.02 -6 4 C-4.7934375 3.566875 -4.7934375 3.566875 -3.5625 3.125 C-0.8673532 2.26737432 -0.8673532 2.26737432 0 0 Z " fill="#9C6D4B" transform="translate(84,29)"/>
<path d="M0 0 C1.45047396 2.90094791 0.45356803 4.55972596 -0.4375 7.625 C-0.72496094 8.62789062 -1.01242188 9.63078125 -1.30859375 10.6640625 C-1.53675781 11.43492188 -1.76492187 12.20578125 -2 13 C-2.33 13 -2.66 13 -3 13 C-3.08086147 11.20906809 -3.13912702 9.41710372 -3.1875 7.625 C-3.22230469 6.62726563 -3.25710937 5.62953125 -3.29296875 4.6015625 C-3.14794922 3.31378906 -3.14794922 3.31378906 -3 2 C-2.01 1.34 -1.02 0.68 0 0 Z " fill="#B27556" transform="translate(4,64)"/>
<path d="M0 0 C4.29 0 8.58 0 13 0 C13 0.33 13 0.66 13 1 C8.73383684 2.13764351 5.43513689 3 1 3 C0.67 2.01 0.34 1.02 0 0 Z " fill="#E59972" transform="translate(111,36)"/>
<path d="M0 0 C0.33 0.66 0.66 1.32 1 2 C1.99 2.33 2.98 2.66 4 3 C3.25 4.9375 3.25 4.9375 2 7 C0.68 7.33 -0.64 7.66 -2 8 C-1.34 5.36 -0.68 2.72 0 0 Z " fill="#CB8C61" transform="translate(35,123)"/>
<path d="M0 0 C0.33 0.99 0.66 1.98 1 3 C-2.96 3 -6.92 3 -11 3 C-7.75987532 -0.24012468 -4.46544827 0 0 0 Z " fill="#C58362" transform="translate(21,52)"/>
<path d="M0 0 C4.16138263 -0.08159574 7.9472484 0.01751476 12 1 C10 3 10 3 7.87109375 3.046875 C7.06800781 2.94890625 6.26492187 2.8509375 5.4375 2.75 C4.22900391 2.61851563 4.22900391 2.61851563 2.99609375 2.484375 C2.33738281 2.32453125 1.67867187 2.1646875 1 2 C0.67 1.34 0.34 0.68 0 0 Z " fill="#9B7155" transform="translate(61,37)"/>
<path d="M0 0 C0.33 0 0.66 0 1 0 C1 1.98 1 3.96 1 6 C1.66 6.33 2.32 6.66 3 7 C2.67 7.66 2.34 8.32 2 9 C2.99 9.33 3.98 9.66 5 10 C3.68 10.33 2.36 10.66 1 11 C1 10.34 1 9.68 1 9 C0.01 8.67 -0.98 8.34 -2 8 C-1.34 5.36 -0.68 2.72 0 0 Z " fill="#CF8351" transform="translate(55,27)"/>
<path d="M0 0 C0.33 0 0.66 0 1 0 C1.33 3.96 1.66 7.92 2 12 C1.34 12 0.68 12 0 12 C-1.1671568 8.49852959 -1.13357453 5.67329964 -1 2 C-0.67 1.34 -0.34 0.68 0 0 Z " fill="#A46D52" transform="translate(100,15)"/>
<path d="M0 0 C1.875 0.625 1.875 0.625 4 2 C5.25 5.125 5.25 5.125 6 8 C5.01 7.67 4.02 7.34 3 7 C3 6.34 3 5.68 3 5 C2.34 5 1.68 5 1 5 C0.67 3.35 0.34 1.7 0 0 Z " fill="#AA765E" transform="translate(129,106)"/>
<path d="M0 0 C-2.33539809 1.55693206 -4.57968756 2.90200646 -7.0625 4.1875 C-7.75472656 4.55230469 -8.44695312 4.91710937 -9.16015625 5.29296875 C-9.76730469 5.52628906 -10.37445313 5.75960937 -11 6 C-11.66 5.67 -12.32 5.34 -13 5 C-4.738041 -0.74031891 -4.738041 -0.74031891 0 0 Z " fill="#EE9963" transform="translate(119,105)"/>
<path d="M0 0 C2.97 0 5.94 0 9 0 C9.33 0.99 9.66 1.98 10 3 C6.7 2.67 3.4 2.34 0 2 C0 1.34 0 0.68 0 0 Z " fill="#E5A271" transform="translate(17,103)"/>
<path d="M0 0 C-1.0975223 2.99324263 -1.67682892 3.84610901 -4.625 5.25 C-5.40875 5.4975 -6.1925 5.745 -7 6 C-6.6875 4.125 -6.6875 4.125 -6 2 C-3 0 -3 0 0 0 Z " fill="#BC8868" transform="translate(86,99)"/>
<path d="M0 0 C0.99 0 1.98 0 3 0 C3 2.64 3 5.28 3 8 C2.01 8 1.02 8 0 8 C0 5.36 0 2.72 0 0 Z " fill="#DAA17A" transform="translate(50,17)"/>
<path d="M0 0 C0.66 0 1.32 0 2 0 C3.25 6.625 3.25 6.625 1 10 C-0.60725635 6.78548731 -0.05748185 3.56387464 0 0 Z " fill="#C9946C" transform="translate(50,119)"/>
<path d="M0 0 C2.34058637 2.12780579 3.70700306 4.11562221 5 7 C2.11424181 6.60196439 1.17810487 6.20990931 -0.75 3.9375 C-1.1625 3.298125 -1.575 2.65875 -2 2 C-1.34 2 -0.68 2 0 2 C0 1.34 0 0.68 0 0 Z " fill="#B57D5B" transform="translate(7,81)"/>
<path d="M0 0 C0.66 0.33 1.32 0.66 2 1 C2.40729228 3.32156597 2.74438677 5.6568787 3 8 C2.01 8.495 2.01 8.495 1 9 C1 7.35 1 5.7 1 4 C0.01 3.67 -0.98 3.34 -2 3 C-2 2.34 -2 1.68 -2 1 C-1.34 0.67 -0.68 0.34 0 0 Z " fill="#B5805C" transform="translate(133,9)"/>
<path d="M0 0 C1.32 0.99 2.64 1.98 4 3 C3.67 4.32 3.34 5.64 3 7 C2.34 7 1.68 7 1 7 C-0.0625 4.625 -0.0625 4.625 -1 2 C-0.67 1.34 -0.34 0.68 0 0 Z " fill="#C3875E" transform="translate(7,131)"/>
<path d="M0 0 C0.33 0.66 0.66 1.32 1 2 C1.66 2.33 2.32 2.66 3 3 C0.25 7.875 0.25 7.875 -2 9 C-1.41196203 5.97580475 -0.77321882 2.98241547 0 0 Z " fill="#A88260" transform="translate(84,126)"/>
<path d="M0 0 C1.32 0.66 2.64 1.32 4 2 C2.68 4.31 1.36 6.62 0 9 C-1.10844919 5.67465243 -0.84454356 3.37817425 0 0 Z " fill="#A26D52" transform="translate(35,74)"/>
<path d="M0 0 C0 0.66 0 1.32 0 2 C-0.639375 2.12375 -1.27875 2.2475 -1.9375 2.375 C-2.618125 2.58125 -3.29875 2.7875 -4 3 C-4.33 3.66 -4.66 4.32 -5 5 C-6.32 4.67 -7.64 4.34 -9 4 C-7.04565548 0.09131097 -4.13449517 0 0 0 Z " fill="#A17156" transform="translate(115,2)"/>
<path d="M0 0 C-3.47325181 1.1577506 -6.36067448 1.06866652 -10 1 C-10 0.34 -10 -0.32 -10 -1 C-5.92224809 -1.9267618 -3.57818963 -2.33958553 0 0 Z " fill="#C67553" transform="translate(26,89)"/>
<path d="M0 0 C3.68754757 0.49831724 5.60490662 1.10067643 8 4 C6.35 4.33 4.7 4.66 3 5 C3 4.01 3 3.02 3 2 C2.01 1.67 1.02 1.34 0 1 C0 0.67 0 0.34 0 0 Z " fill="#E19C70" transform="translate(9,84)"/>
<path d="M0 0 C1.4540625 0.0309375 1.4540625 0.0309375 2.9375 0.0625 C1.65687515 1.7699998 0.31982443 3.43623596 -1.0625 5.0625 C-1.7225 5.0625 -2.3825 5.0625 -3.0625 5.0625 C-3.625 3.125 -3.625 3.125 -4.0625 1.0625 C-3.0625 0.0625 -3.0625 0.0625 0 0 Z " fill="#D78F69" transform="translate(11.0625,54.9375)"/>
<path d="M0 0 C0.99 0 1.98 0 3 0 C3 1.98 3 3.96 3 6 C2.01 6.33 1.02 6.66 0 7 C0 4.69 0 2.38 0 0 Z " fill="#D6A185" transform="translate(36,18)"/>
<path d="M0 0 C0.78375 0.04125 1.5675 0.0825 2.375 0.125 C2.375 0.785 2.375 1.445 2.375 2.125 C3.695 2.785 5.015 3.445 6.375 4.125 C2.745 3.465 -0.885 2.805 -4.625 2.125 C-2.625 0.125 -2.625 0.125 0 0 Z " fill="#DC9871" transform="translate(21.625,1.875)"/>
<path d="M0 0 C0.33 0.66 0.66 1.32 1 2 C0.01 3.485 0.01 3.485 -1 5 C-4.125 5.1875 -4.125 5.1875 -7 5 C-4.87219421 2.65941363 -2.88437779 1.29299694 0 0 Z " fill="#987254" transform="translate(62,103)"/>
<path d="M0 0 C2.475 0.495 2.475 0.495 5 1 C5 1.66 5 2.32 5 3 C5.99 2.67 6.98 2.34 8 2 C8.33 2.66 8.66 3.32 9 4 C6.36 3.67 3.72 3.34 1 3 C0.67 2.01 0.34 1.02 0 0 Z " fill="#E79E74" transform="translate(21,53)"/>
<path d="M0 0 C2.31 0 4.62 0 7 0 C5.515 1.98 5.515 1.98 4 4 C2.68 3.67 1.36 3.34 0 3 C0 2.01 0 1.02 0 0 Z " fill="#BE714E" transform="translate(39,49)"/>
<path d="M0 0 C0.66 0.33 1.32 0.66 2 1 C1.34 3.97 0.68 6.94 0 10 C-0.33 10 -0.66 10 -1 10 C-1.125 2.25 -1.125 2.25 0 0 Z " fill="#9C7150" transform="translate(100,65)"/>
<path d="M0 0 C1.32 0 2.64 0 4 0 C4.33 1.32 4.66 2.64 5 4 C2.03 3.505 2.03 3.505 -1 3 C-0.67 2.01 -0.34 1.02 0 0 Z " fill="#E3A176" transform="translate(58,33)"/>
<path d="M0 0 C2.475 0.495 2.475 0.495 5 1 C5.33 2.32 5.66 3.64 6 5 C3.5625 4.1875 3.5625 4.1875 1 3 C0.67 2.01 0.34 1.02 0 0 Z " fill="#AF7456" transform="translate(5,32)"/>
<path d="M0 0 C0.99 0.99 1.98 1.98 3 3 C2.67 3.99 2.34 4.98 2 6 C1.01 5.67 0.02 5.34 -1 5 C-1.33 4.01 -1.66 3.02 -2 2 C-1.34 2 -0.68 2 0 2 C0 1.34 0 0.68 0 0 Z " fill="#BE8662" transform="translate(33,7)"/>
<path d="M0 0 C3.87132028 0.57352893 6.08172796 2.48704352 9 5 C5.65626525 4.44271087 2.96687001 3.64826111 0 2 C0 1.34 0 0.68 0 0 Z " fill="#976A51" transform="translate(24,2)"/>
</svg>
